<svg width="83" height="40" viewBox="0 0 83 40" fill="none" xmlns="http://www.w3.org/2000/svg">
<path d="M14.4098 2.76171L14.0375 14.5644L12.2149 14.7901L8.12024 6.39006L6.34141 15.765L4.74208 16.0046L0.913952 5.06046L2.51062 4.59212L5.23697 13.2446L6.90519 4.6604L8.85487 4.59734L12.663 12.6137L12.763 2.68458L14.4098 2.76171Z" fill="#364688"/>
<path d="M19.8429 13.4249C20.1188 13.4155 20.3906 13.3645 20.6585 13.272C20.9261 13.1743 21.1717 13.0409 21.3953 12.8717C21.6186 12.6973 21.8094 12.485 21.9677 12.2347C22.1311 11.9842 22.2464 11.6962 22.3135 11.3708L23.8308 11.624C23.7012 12.1026 23.5102 12.5391 23.2578 12.9333C23.0055 13.3276 22.707 13.6687 22.3625 13.9566C22.0179 14.2445 21.6348 14.4712 21.2131 14.6367C20.7966 14.8021 20.3567 14.8926 19.8934 14.9084C19.2063 14.9318 18.5938 14.8484 18.0557 14.6583C17.5177 14.4682 17.06 14.1893 16.6827 13.8218C16.3054 13.4542 16.0113 13.0056 15.8004 12.476C15.5948 11.9463 15.4807 11.3508 15.4582 10.6898C15.436 10.0391 15.5247 9.42895 15.7241 8.85933C15.9286 8.28433 16.2164 7.78205 16.5874 7.35251C16.9584 6.92296 17.4001 6.5796 17.9125 6.32242C18.4248 6.06524 18.9829 5.92637 19.5868 5.9058C20.1281 5.88736 20.6419 5.97669 21.128 6.17379C21.614 6.36569 22.0482 6.64274 22.4305 7.00493C22.8127 7.36192 23.1321 7.78879 23.3887 8.28555C23.6454 8.78231 23.8149 9.32372 23.8974 9.9098L17.1701 11.1474C17.2191 11.5157 17.3215 11.8457 17.4774 12.1375C17.6331 12.424 17.8263 12.665 18.057 12.8604C18.293 13.0556 18.5612 13.2028 18.8616 13.302C19.167 13.3958 19.4941 13.4368 19.8429 13.4249ZM21.8487 8.97119L21.7968 8.82444C21.5814 8.31585 21.2944 7.92175 20.9357 7.64213C20.5822 7.36234 20.1478 7.23122 19.6325 7.24877C19.4139 7.25622 19.1758 7.30342 18.9182 7.39036C18.6604 7.4721 18.4123 7.60823 18.1738 7.79875C17.9354 7.98927 17.7225 8.24146 17.5351 8.55531C17.3528 8.86378 17.2304 9.24578 17.1677 9.7013L21.8487 8.97119Z" fill="#364688"/>
<path d="M29.4791 13.5803C29.7546 13.5974 30.0301 13.5728 30.3056 13.5064C30.5814 13.4348 30.8387 13.3256 31.0774 13.1787C31.3165 13.0265 31.5268 12.8335 31.7083 12.5995C31.895 12.3658 32.0374 12.0903 32.1354 11.7728L33.6214 12.1705C33.4465 12.6345 33.2145 13.0506 32.9255 13.4188C32.6364 13.787 32.3066 14.0978 31.936 14.3514C31.5654 14.6049 31.1623 14.7938 30.7266 14.9181C30.2962 15.0426 29.8497 15.0905 29.387 15.0618C28.7008 15.0191 28.0991 14.8774 27.5818 14.6365C27.0645 14.3956 26.6357 14.0741 26.2954 13.672C25.9551 13.2699 25.7054 12.7952 25.5464 12.2478C25.3925 11.7007 25.3361 11.0971 25.3772 10.4369C25.4176 9.78712 25.5644 9.18831 25.8176 8.64046C26.0763 8.08774 26.411 7.61541 26.8215 7.22345C27.232 6.8315 27.7046 6.53212 28.2393 6.32531C28.774 6.1185 29.3429 6.03384 29.9459 6.07132C30.4865 6.10493 30.9893 6.24316 31.4543 6.48602C31.9196 6.72368 32.3252 7.04112 32.671 7.43834C33.0171 7.83036 33.2941 8.28592 33.5019 8.80502C33.7096 9.32412 33.8265 9.87931 33.8523 10.4706L27.0372 11.0567C27.0507 11.4281 27.121 11.7664 27.2481 12.0718C27.3755 12.3719 27.5447 12.6303 27.7557 12.8469C27.9718 13.0639 28.2246 13.2361 28.5141 13.3637C28.8092 13.4864 29.1308 13.5586 29.4791 13.5803ZM31.9031 9.33968L31.8655 9.18862C31.7 8.66171 31.4521 8.24187 31.1219 7.92912C30.7969 7.61669 30.3771 7.44448 29.8625 7.41249C29.6442 7.39891 29.4026 7.42304 29.1379 7.48485C28.8734 7.54147 28.6134 7.65316 28.3578 7.81991C28.1021 7.98667 27.866 8.21725 27.6494 8.51168C27.4383 8.80122 27.2798 9.1697 27.1737 9.6171L31.9031 9.33968Z" fill="#364688"/>
<path d="M39.0695 3.40499L37.6308 10.6839L42.2973 7.2665L43.3363 8.40286L40.0093 10.7974L42.6486 15.6339L41.1336 16.4156L38.6885 11.752L37.2106 12.8005L36.7677 15.1113L35.0926 14.9504L37.3611 3.10437L39.0695 3.40499Z" fill="#364688"/>
<path d="M46.8898 17.3833C46.5304 17.2965 46.2242 17.163 45.9712 16.9829C45.7234 16.8039 45.5136 16.5988 45.3417 16.3676C45.176 16.1325 45.044 15.8783 44.9457 15.605C44.8525 15.3329 44.7827 15.0634 44.7364 14.7966C44.6238 14.1623 44.6199 13.4725 44.7247 12.7272L47.1196 3.11248L48.712 3.47332C48.4818 4.37173 48.2682 5.19648 48.0713 5.94758C47.8806 6.69475 47.7074 7.37647 47.5518 7.99272C47.3973 8.60389 47.2571 9.15157 47.1314 9.63576C47.0108 10.1211 46.9033 10.548 46.8092 10.9165C46.5909 11.7856 46.4197 12.4704 46.2956 12.971C46.1987 13.4457 46.1717 13.8828 46.2147 14.2824C46.2298 14.4514 46.2607 14.6213 46.3075 14.7921C46.3593 14.964 46.4298 15.1242 46.519 15.2726C46.6133 15.4221 46.7331 15.5534 46.8784 15.6664C47.0299 15.7755 47.2143 15.8574 47.4315 15.9119L46.8898 17.3833Z" fill="#364688"/>
<path d="M57.1441 11.7264C56.6467 12.4256 56.1918 13.0642 55.7796 13.6421C55.3724 14.2216 55.0038 14.7446 54.6738 15.2112C54.3438 15.6779 54.0485 16.0923 53.7878 16.4547C53.5271 16.817 53.2988 17.1347 53.1029 17.4077C52.6448 18.048 52.2884 18.5393 52.0337 18.8817C51.8458 19.1462 51.6352 19.423 51.4019 19.7119C51.1721 20.0074 50.9106 20.2907 50.6174 20.5617C50.3292 20.8343 50.0099 21.0839 49.6593 21.3106C49.3122 21.5438 48.9307 21.7286 48.5147 21.865C48.1022 22.0079 47.6533 22.091 47.1679 22.1143C46.6825 22.1375 46.1617 22.0794 45.6054 21.9401L45.7504 20.3933C46.0478 20.5258 46.3402 20.6024 46.6275 20.6232C46.9184 20.6505 47.1972 20.6361 47.4641 20.5801C47.7344 20.5305 47.9931 20.4475 48.2399 20.3312C48.4918 20.2163 48.7267 20.0854 48.9446 19.9386C49.1675 19.7933 49.372 19.6371 49.5579 19.4698C49.7424 19.3076 49.9082 19.1534 50.0553 19.0071L49.4062 9.67915L51.1896 9.9602L51.4236 17.2149C51.6539 16.8815 51.9235 16.4892 52.2326 16.038C52.5481 15.5834 52.8823 15.0936 53.2352 14.5685C53.5931 14.045 53.9634 13.498 54.3462 12.9276C54.7305 12.3522 55.1083 11.7803 55.4796 11.2118L57.1441 11.7264Z" fill="#364688"/>
<path d="M63.9536 12.2583C64.1295 11.8902 64.3767 11.5608 64.6809 11.289C64.9851 11.0173 65.3403 10.8086 65.7258 10.6752C66.1112 10.5418 66.5193 10.4862 66.9265 10.5117C67.3336 10.5372 67.7316 10.6433 68.0974 10.8239" stroke="#6D3200" stroke-width="1.5" stroke-miterlimit="10" stroke-linecap="round"/>
<path d="M67.4069 9.1239C67.661 8.37759 68.1871 7.75447 68.8802 7.37875C69.5733 7.00304 70.3826 6.90232 71.1466 7.09669C71.9107 7.29106 72.5735 7.76622 73.0028 8.42747C73.4321 9.08872 73.5965 9.88748 73.4631 10.6645C73.3318 11.233 73.0362 11.7503 72.6131 12.152H72.6662L65.2819 19.4301H65.335C64.7854 19.9721 64.0551 20.2921 63.2841 20.329C62.5132 20.3659 61.7557 20.117 61.1568 19.63C60.558 19.143 60.1599 18.4522 60.0388 17.6899C59.9177 16.9276 60.0822 16.1475 60.5006 15.4989C60.7255 15.1584 61.0158 14.866 61.3547 14.6386C61.6935 14.4112 62.0742 14.2534 62.4745 14.1743C62.8748 14.0953 63.2869 14.0965 63.6867 14.178C64.0866 14.2594 64.4662 14.4195 64.8037 14.6489" stroke="#6D3200" stroke-width="1.5" stroke-linecap="round" stroke-linejoin="round"/>
<path d="M44.9374 32.2739C44.8576 32.8204 44.6887 33.272 44.4306 33.6287C44.1726 33.9854 43.856 34.2684 43.481 34.4777C43.112 34.6827 42.6955 34.8266 42.2316 34.9094C41.7719 34.9981 41.2963 35.0418 40.8048 35.0403C40.3176 35.0449 39.8306 35.0179 39.3438 34.9591C38.8571 34.9004 38.4034 34.8342 37.9827 34.7605C37.5569 34.686 37.0846 34.5901 36.5658 34.4729C36.0512 34.3617 35.488 34.2261 34.8762 34.0661L36.5064 22.8035C37.057 22.7994 37.5878 22.8183 38.0986 22.8601C38.6104 22.8968 39.0656 22.9395 39.4642 22.9881C39.9295 23.0484 40.3669 23.117 40.7765 23.194C41.1646 23.2725 41.553 23.3643 41.9418 23.4693C42.3305 23.5744 42.6968 23.7019 43.0407 23.852C43.3906 23.9979 43.709 24.1726 43.9959 24.3761C44.2828 24.5797 44.5215 24.8171 44.7119 25.0884C44.9024 25.3596 45.0356 25.6711 45.1115 26.0228C45.1883 26.3694 45.1881 26.7632 45.1109 27.2044C45.0103 27.779 44.819 28.2531 44.5368 28.6268C44.2555 28.9952 43.9222 29.2832 43.5369 29.4908C43.7398 29.6003 43.9165 29.7237 44.0669 29.8611C44.2183 29.9934 44.3443 30.1344 44.445 30.2842C44.5508 30.4349 44.6347 30.5897 44.6968 30.7486C44.7649 30.9033 44.8176 31.0553 44.8549 31.2046C44.9378 31.5469 44.9653 31.9033 44.9374 32.2739ZM40.5621 24.6C40.321 24.5578 40.058 24.5197 39.7731 24.4857C39.5302 24.4537 39.2496 24.4258 38.9312 24.4018C38.618 24.3787 38.2825 24.3622 37.9247 24.3525L37.3609 28.2988C37.8039 28.3657 38.2063 28.4229 38.5681 28.4704C38.936 28.5136 39.252 28.5504 39.5164 28.5808C39.8278 28.6142 40.1059 28.6417 40.3506 28.6634C40.7338 28.7093 41.1063 28.7111 41.468 28.6686C41.8357 28.6219 42.164 28.5287 42.4528 28.3889C42.7417 28.2491 42.9787 28.058 43.1639 27.8154C43.3542 27.5738 43.462 27.2754 43.4871 26.9202C43.5013 26.6583 43.4685 26.4226 43.3888 26.213C43.3152 25.9992 43.2054 25.8108 43.0595 25.6478C42.9196 25.4805 42.7491 25.337 42.5479 25.2172C42.3529 25.0932 42.1435 24.9904 41.9198 24.909C41.7021 24.8233 41.4758 24.7572 41.2407 24.7108C41.0065 24.6592 40.7803 24.6223 40.5621 24.6ZM41.1111 30.0734C40.981 30.0613 40.8663 30.0518 40.7671 30.045C40.6738 30.0339 40.5908 30.0247 40.5181 30.0172C40.4505 30.0107 40.3881 30.0051 40.3307 30.0003C40.2785 29.9965 40.2293 29.9905 40.1832 29.9824C39.8965 29.9587 39.5898 29.9288 39.263 29.8927C38.9823 29.8648 38.6602 29.8322 38.2966 29.795C37.9339 29.7526 37.5584 29.7081 37.17 29.6612L36.6887 33.0906C36.8306 33.126 36.9708 33.1558 37.1093 33.18C37.2478 33.2043 37.3838 33.2281 37.5172 33.2514C37.7583 33.2936 38.061 33.3466 38.4252 33.4104C38.7955 33.4699 39.1834 33.5193 39.589 33.5585C40.0006 33.5935 40.4136 33.605 40.8282 33.593C41.2487 33.5767 41.632 33.5169 41.9779 33.4135C42.3298 33.3059 42.6232 33.1405 42.8579 32.9172C43.0977 32.6948 43.2436 32.3899 43.2956 32.0024C43.2979 31.7173 43.2235 31.4478 43.0722 31.194C43.0063 31.0872 42.9199 30.9769 42.8129 30.863C42.7111 30.75 42.5813 30.6454 42.4237 30.5491C42.267 30.4476 42.0793 30.3566 41.8608 30.276C41.6483 30.1913 41.3984 30.1237 41.1111 30.0734Z" fill="#364688"/>
<path d="M54.7898 27.1342C54.3355 27.8622 53.9201 28.5271 53.5435 29.1289C53.172 29.7318 52.8356 30.2762 52.5345 30.7619C52.2333 31.2476 51.9635 31.6791 51.7252 32.0566C51.4868 32.434 51.2781 32.7648 51.0991 33.0492C50.6805 33.716 50.3544 34.228 50.1209 34.5851C49.9493 34.8605 49.7557 35.1494 49.5403 35.452C49.3288 35.7608 49.0849 36.0593 48.8086 36.3476C48.5374 36.637 48.2337 36.9055 47.8974 37.1529C47.5651 37.4067 47.1954 37.6142 46.7884 37.7755C46.3853 37.943 45.9423 38.0531 45.4592 38.1056C44.9761 38.1581 44.4527 38.1316 43.8889 38.0261L43.9403 36.4733C44.2451 36.5877 44.5416 36.6465 44.8297 36.6499C45.1217 36.6595 45.3991 36.6284 45.6621 36.5563C45.929 36.4905 46.1821 36.3921 46.4215 36.261C46.666 36.1311 46.8926 35.9863 47.1012 35.8266C47.3149 35.6681 47.5096 35.4998 47.6851 35.3217C47.8595 35.1486 48.0156 34.9846 48.1536 34.8297L46.9424 25.558L48.7395 25.7308L49.4112 32.9581C49.6209 32.6114 49.8664 32.2036 50.1476 31.7346C50.4351 31.2617 50.7391 30.7526 51.0597 30.2072C51.3853 29.663 51.7219 29.0947 52.0695 28.5022C52.4184 27.9046 52.7609 27.3109 53.0973 26.7211L54.7898 27.1342Z" fill="#364688"/>
<path d="M59.1177 24.1164L59.0407 27.6081L62.0726 27.5259L61.9461 28.986L59.016 29.0455L58.9101 35.8575L57.2615 35.886L57.4376 29.0823L54.7341 29.1276L54.7745 27.6904L57.4781 27.6294L57.5624 24.208L59.1177 24.1164Z" fill="#364688"/>
<path d="M68.2481 33.2305C68.5162 33.1646 68.7718 33.0588 69.0149 32.9132C69.2567 32.7626 69.4697 32.5815 69.6537 32.37C69.8364 32.1535 69.9795 31.9065 70.0829 31.629C70.1914 31.3502 70.245 31.0447 70.2438 30.7125L71.7807 30.6484C71.7523 31.1435 71.6551 31.6099 71.4891 32.0475C71.3232 32.4852 71.1012 32.8804 70.8232 33.233C70.5452 33.5856 70.2168 33.8862 69.8381 34.1348C69.4645 34.3822 69.0526 34.5613 68.6025 34.6719C67.9349 34.836 67.3182 34.8804 66.7526 34.8049C66.187 34.7294 65.6818 34.5505 65.237 34.2684C64.7922 33.9862 64.4122 33.6076 64.097 33.1327C63.7868 32.6565 63.5528 32.0972 63.3949 31.4549C63.2395 30.8227 63.2008 30.2073 63.279 29.6089C63.3609 29.0041 63.5393 28.4534 63.8141 27.9568C64.0889 27.4602 64.4506 27.0334 64.8992 26.6764C65.3478 26.3194 65.8654 26.0688 66.4521 25.9245C66.9781 25.7952 67.4993 25.7771 68.0155 25.87C68.5306 25.958 69.0124 26.1399 69.461 26.4157C69.9084 26.6866 70.3087 27.0387 70.662 27.4721C71.0153 27.9055 71.2925 28.4005 71.4937 28.9571L65.1643 31.5509C65.2879 31.9013 65.456 32.2032 65.6685 32.4567C65.8798 32.7051 66.1184 32.9012 66.3843 33.045C66.6554 33.1876 66.9481 33.2765 67.2625 33.3118C67.5807 33.3409 67.9093 33.3138 68.2481 33.2305ZM69.2958 28.4596L69.2148 28.3267C68.8995 27.8732 68.5376 27.5465 68.1291 27.3466C67.7257 27.1454 67.2736 27.1063 66.7729 27.2294C66.5605 27.2817 66.3371 27.3768 66.1029 27.5148C65.8674 27.6478 65.6526 27.832 65.4584 28.0675C65.2642 28.3029 65.1077 28.5935 64.9888 28.9391C64.8738 29.2785 64.8324 29.6775 64.8648 30.1362L69.2958 28.4596Z" fill="#364688"/>
<path d="M80.9165 29.9822C81.1432 30.422 81.2438 30.8389 81.2184 31.2329C81.1952 31.6199 81.0809 31.9835 80.8754 32.3238C80.677 32.6663 80.406 32.9818 80.0625 33.2702C79.7259 33.5609 79.3541 33.8229 78.947 34.0562C78.5187 34.2711 78.0655 34.449 77.5874 34.59C77.3855 34.6531 77.1649 34.7082 76.9256 34.7554C76.6932 34.8049 76.4491 34.8428 76.1932 34.8693C75.9373 34.8957 75.673 34.906 75.4004 34.9C75.1278 34.894 74.8549 34.8648 74.5817 34.8123L74.7112 33.4095C75.035 33.4125 75.3611 33.4085 75.6894 33.3975C76.0223 33.384 76.3527 33.3544 76.6806 33.3084C77.0061 33.2578 77.329 33.1851 77.6493 33.0903C77.9696 32.9955 78.2848 32.8682 78.595 32.7083C78.8496 32.577 79.0529 32.4429 79.205 32.3059C79.3547 32.1643 79.4672 32.0302 79.5425 31.9034C79.62 31.7697 79.6662 31.6434 79.6811 31.5244C79.6981 31.3984 79.6991 31.2865 79.6839 31.1889C79.6689 31.1029 79.6364 31.0171 79.5864 30.9315C79.534 30.8413 79.4609 30.7619 79.3668 30.6931C79.2774 30.622 79.1638 30.5664 79.0258 30.5261C78.8902 30.4789 78.7303 30.4587 78.5464 30.4656C78.3601 30.4679 78.1485 30.5008 77.9117 30.5643C77.6749 30.6278 77.4071 30.7278 77.1082 30.8642C76.682 31.0605 76.2578 31.2264 75.8355 31.3621C75.4155 31.4907 75.0157 31.562 74.6362 31.576C74.2613 31.5876 73.9146 31.529 73.5963 31.4001C73.2801 31.2643 73.0105 31.0312 72.7875 30.7008C72.5833 30.3842 72.4478 30.0702 72.3811 29.7589C72.3166 29.4406 72.3046 29.1332 72.3452 28.8369C72.3905 28.5382 72.4848 28.2493 72.6281 27.9704C72.769 27.6868 72.9463 27.4225 73.1599 27.1776C73.3711 26.9281 73.6118 26.7015 73.8818 26.4979C74.1541 26.2872 74.443 26.1031 74.7485 25.9456C74.9291 25.8525 75.1468 25.752 75.4017 25.6441C75.6566 25.5361 75.9326 25.4407 76.2298 25.3578C76.5269 25.275 76.8395 25.2164 77.1675 25.1821C77.4932 25.1431 77.8182 25.1484 78.1426 25.198L78.3185 26.7158C77.9295 26.7112 77.5734 26.7366 77.2503 26.7918C76.9294 26.84 76.6494 26.8936 76.4102 26.9524C76.1315 27.0257 75.8786 27.1092 75.6515 27.2029C74.9032 27.5359 74.3755 27.9046 74.0683 28.309C73.7658 28.7111 73.716 29.1089 73.9188 29.5024C74.062 29.7801 74.2434 29.9444 74.463 29.9953C74.6802 30.0416 74.935 30.0244 75.2276 29.944C75.5201 29.8635 75.847 29.7418 76.2084 29.579C76.5698 29.4161 76.965 29.2622 77.3942 29.1171C77.8837 28.9527 78.3193 28.86 78.7011 28.839C79.0828 28.818 79.4164 28.8511 79.7016 28.9385C79.9869 29.0258 80.2296 29.1614 80.4299 29.3453C80.6278 29.5246 80.79 29.7369 80.9165 29.9822Z" fill="#364688"/>
</svg>
